PathFileType	4	(X/Y/Z)	C:/Users/opensim2020/Desktop/walking_exp_matlab/subject03_walking08_straight_04.trc	
DataRate	CameraRate	NumFrames	NumMarkers	Units	OrigDataRate	OrigDataStartFrame	OrigNumFrames	
100.00	100.00	4	51	mm	100.00	3465	303	
Frame#	Time	LFHD			RFHD			LBHD			RBHD			C7			T10			CLAV			STRN			RBAK			LSHO			LUPA			LELB			LFRM			LWRA			LWRB			LFIN			RSHO			RUPA			RELB			RFRM			RWRA			RWRB			RFIN			LASI			RASI			LPSI			RPSI			LTHI			LKNE			LTIB			LANK			LHEE			LTOE			RTHI			RKNE			RTIB			RANK			RHEE			RTOE			*39			*40			*41			*42			*43			*44			*45			*46			*47			*48			*49			*50			
		X1	Y1	Z1	X2	Y2	Z2	X3	Y3	Z3	X4	Y4	Z4	X5	Y5	Z5	X6	Y6	Z6	X7	Y7	Z7	X8	Y8	Z8	X9	Y9	Z9	X10	Y10	Z10	X11	Y11	Z11	X12	Y12	Z12	X13	Y13	Z13	X14	Y14	Z14	X15	Y15	Z15	X16	Y16	Z16	X17	Y17	Z17	X18	Y18	Z18	X19	Y19	Z19	X20	Y20	Z20	X21	Y21	Z21	X22	Y22	Z22	X23	Y23	Z23	X24	Y24	Z24	X25	Y25	Z25	X26	Y26	Z26	X27	Y27	Z27	X28	Y28	Z28	X29	Y29	Z29	X30	Y30	Z30	X31	Y31	Z31	X32	Y32	Z32	X33	Y33	Z33	X34	Y34	Z34	X35	Y35	Z35	X36	Y36	Z36	X37	Y37	Z37	X38	Y38	Z38	X39	Y39	Z39	X40	Y40	Z40	X41	Y41	Z41	X42	Y42	Z42	X43	Y43	Z43	X44	Y44	Z44	X45	Y45	Z45	X46	Y46	Z46	X47	Y47	Z47	X48	Y48	Z48	X49	Y49	Z49	X50	Y50	Z50	X51	Y51	Z51	

114	1.130	1470.26184	407.67429	1619.73669	1338.20471	423.87909	1621.64282	1480.75610	537.33643	1582.50867	1350.90625	548.36572	1584.35767	1416.53687	584.02771	1423.62585	1413.34167	626.30591	1110.11768	1420.24670	465.45193	1341.90894	1423.70691	428.16589	1176.36426	1313.84497	639.20612	1251.19824	1574.56921	518.92810	1378.97107	1647.76843	550.04565	1183.36072	1665.02319	552.53186	1061.34460	1672.09741	526.38464	934.36450	1648.46594	499.35577	817.21393	1693.59937	532.30878	821.82483	1689.74512	511.61340	739.87134	1259.59656	503.36679	1370.28015	1180.63782	472.63449	1153.41992	1165.93774	436.11899	1047.26953	1163.08557	391.91272	917.86218	1199.68921	346.10690	830.12585	1153.37463	371.97125	819.92883	1163.25525	335.16653	755.56525	1532.19604	461.27740	946.59967	1294.59656	464.59995	941.72339	1486.69055	624.74585	964.88873	1336.88818	623.29175	977.21356	1584.40210	435.97894	653.89154	1551.52551	375.68387	486.14923	1557.07104	442.65967	298.83151	1523.99890	487.36890	94.13971	1484.53906	531.71893	59.50657	1505.99524	348.65073	48.12252	1265.84192	542.94513	649.17328	1305.51404	549.05487	470.34924	1310.33521	614.40131	289.97446	1367.73022	656.83563	78.92797	1422.17163	698.19397	50.46856	1373.59619	515.64484	35.49709																																				 
115	1.140	1470.71252	400.54037	1619.10522	1338.68750	416.52853	1621.11243	1481.13440	530.12000	1581.63867	1351.23438	541.06189	1583.60059	1416.50989	576.61316	1423.00281	1413.50378	619.19055	1109.57043	1420.39514	458.05875	1341.18713	1423.73425	421.01376	1175.47034	1313.53345	631.68939	1250.81104	1574.68884	512.03162	1378.11731	1647.61511	544.15973	1182.58374	1665.02991	546.79993	1060.54102	1671.90894	520.41101	933.59027	1648.35901	493.09354	816.52307	1693.29126	526.27039	821.02216	1689.61829	505.22836	739.24451	1259.71899	495.40674	1369.75073	1180.55627	464.09857	1153.17041	1165.89966	427.18729	1047.23523	1163.39307	382.10019	918.24255	1200.77393	334.77136	831.14893	1154.30188	360.80029	820.45514	1164.48767	323.42300	756.57544	1532.10388	454.09433	945.77905	1294.59351	457.95389	941.11090	1486.90820	617.69470	964.11652	1337.07104	616.49622	976.55365	1584.38062	428.93530	653.15588	1550.64490	367.09830	486.09454	1556.66809	425.68387	296.41965	1522.98718	459.74228	89.25800	1484.50757	503.84650	53.85073	1504.15295	319.93918	48.58602	1265.73389	537.84393	648.84204	1305.41956	545.51849	470.13644	1310.32068	612.49774	290.23398	1367.81262	656.45453	79.49474	1422.32568	698.01697	51.23770	1373.54272	515.59363	35.44976																																				 
116	1.150	1471.23071	393.29700	1618.46411	1339.11475	409.27603	1620.50452	1481.53064	522.83606	1580.75317	1351.60303	533.65063	1582.79736	1416.48840	569.02521	1422.26611	1413.67944	612.07208	1108.95605	1420.58252	450.56189	1340.33984	1423.79041	413.77255	1174.59998	1313.34863	624.16815	1250.32617	1574.84399	505.01077	1377.21326	1647.46448	538.00311	1181.68701	1664.62280	540.63464	1059.61206	1671.66772	514.21729	932.72455	1648.22327	486.79797	815.76978	1692.88318	520.05182	820.15503	1689.36743	498.73801	738.46411	1259.87646	487.49588	1369.10596	1180.50146	455.70615	1152.81042	1165.92358	418.34637	1047.05273	1164.03076	371.87454	918.46704	1201.74792	324.20496	832.00085	1155.27881	349.84024	820.86438	1165.93079	311.94873	757.62726	1532.01880	447.05173	944.82739	1294.38855	451.18427	940.41699	1487.27063	610.70654	963.38397	1337.35657	609.68475	975.85620	1584.49268	422.29504	651.98901	1549.81750	358.93460	485.74487	1556.15198	408.84891	294.35577	1522.75952	432.95569	85.77090	1484.42358	475.85278	48.79875	1501.96631	291.43747	49.32311	1265.66479	532.67853	648.57373	1305.28357	541.93250	469.88107	1310.29956	610.59064	290.52551	1367.65930	656.35925	80.08040	1422.41003	697.81787	52.09215	1373.44824	515.49310	35.39353																																				 
117	1.160	1471.76904	386.04678	1617.74561	1339.67957	401.91083	1619.93884	1481.95679	515.53491	1579.76099	1351.97241	526.22357	1581.89551	1416.41089	561.30591	1421.38281	1413.98596	604.94916	1108.31494	1420.78052	443.05200	1339.45190	1423.95154	406.49115	1173.63477	1313.25391	616.61530	1249.78491	1574.98132	497.85025	1376.32458	1647.31177	531.66284	1180.78430	1664.43225	534.37054	1058.71655	1671.34924	507.83862	931.76831	1647.94067	480.28781	814.84943	1692.42004	513.75861	819.19781	1689.00244	492.26028	737.57813	1260.12659	479.76141	1368.46179	1180.51086	447.36600	1152.33569	1166.00439	409.63428	1046.71790	1164.66614	362.15012	918.56384	1203.06543	314.09546	832.65375	1156.41895	339.09204	821.14362	1167.46387	300.28525	758.22498	1532.07068	439.74136	943.75049	1294.45068	444.36252	939.71722	1487.53406	603.48615	962.26703	1337.62207	602.85565	975.19550	1584.71301	416.01776	650.60883	1548.99854	351.26382	485.08548	1555.58032	392.25137	292.52188	1522.89404	407.18216	83.28734	1484.33557	447.99158	44.45724	1499.32288	263.74069	50.09983	1265.60266	527.39252	648.21783	1305.14453	538.28174	469.68896	1310.25610	608.55078	290.79382	1367.92468	656.17413	80.59229	1422.50684	697.61041	53.01540	1373.29114	515.42877	35.39420																																				 
